<svg width="142" height="38" viewBox="0 0 142 38" fill="none" xmlns="http://www.w3.org/2000/svg">
<path d="M19.8148 20.8192L15.4741 0.883789H5.22501L0.602886 22.025L3.29578 21.8642L0 36.8962H8.56098L9.56579 29.8223H16.2377L17.4435 36.8962H26.0447L22.5077 20.6584L19.8148 20.8192ZM10.4902 23.4719L10.8118 21.3819L8.11886 21.5427L10.2491 7.47534H10.3294L12.3391 21.3417L15.032 21.1809L15.3535 23.5121H10.4902V23.4719Z" fill="black"/>
<path d="M42.3654 19.4129C42.0841 19.0914 41.8027 18.7698 41.5214 18.4885C39.552 16.6396 36.7787 15.3937 33.6035 13.3841C31.9154 12.2185 30.79 11.1333 31.0312 8.92271C31.2321 7.31501 32.237 6.3504 33.9652 6.51117C36.7787 6.71213 36.6581 9.60598 36.7787 11.7362H44.6162C45.0181 4.94366 41.24 0 33.8446 0C27.2531 0 23.1133 3.49674 23.1133 10.2893C23.1133 13.4644 24.0377 15.7152 25.565 17.5239C26.4492 18.5287 27.5344 19.4531 28.7804 20.2972L31.5135 20.1364C32.4781 20.7795 33.5231 21.4225 34.6485 22.0656C36.8591 23.4322 39.3912 24.5977 39.3912 27.6122C39.3912 29.461 38.507 31.2295 36.5375 31.2295C33.8446 31.2295 33.1614 29.3806 33.1614 27.3308V24.7585H25.3239V28.617C25.3239 33.4401 28.6196 37.7808 36.3768 37.7808C43.4506 37.7808 47.3091 33.9224 47.3091 26.9691C47.3091 23.2714 46.5052 21.0206 45.0583 19.2923L42.3654 19.4129Z" fill="black"/>
<path d="M45.1367 8.11842H51.8087V18.89L54.5015 18.7292V36.8962H62.9821V18.1665L60.2892 18.3273V8.11842H67.1621V0.883789H45.1367V8.11842Z" fill="black"/>
<path d="M139.308 13.4644V0.884232H131.229L131.752 13.9468L129.622 14.0673L125.361 0.884232H116.599V14.8712L115.193 14.9516V10.8118C115.193 3.85847 111.173 0 103.738 0C96.3021 0 92.1623 3.85847 92.1623 10.8118V16.3583L89.59 16.5191C90.5948 15.032 90.9163 13.1429 90.9163 10.8519C90.9163 3.65751 87.4196 0.84404 80.4663 0.84404H68.0469V17.8454L70.7398 17.6846V36.8564H79.2605V22.5881H82.074C84.0434 22.7489 84.7267 24.1958 84.9679 26.4064C85.209 28.617 85.0081 31.6314 85.1688 34.8066C85.209 35.5301 85.41 36.2133 85.6511 36.8966H94.9356V36.4143C94.5337 36.0928 94.2925 35.6506 94.1317 35.1683C93.6494 32.8372 93.6092 26.6074 93.3681 23.7135C93.2073 21.1814 91.5192 19.5737 89.1479 19.011V18.9306C90.5948 18.2875 91.5996 17.4435 92.2829 16.3985L94.9356 16.2377V25.3614C94.9356 33.5204 97.95 37.7808 106.511 37.7808C115.072 37.7808 117.966 33.5204 117.966 25.3614V14.831L119.373 14.7506V36.8966H127.451L126.607 16.72L126.688 16.6396L133.319 36.9368H142.001V13.3037L139.308 13.4644ZM76.5677 7.3954C80.7075 7.31501 82.5161 7.47578 82.5161 11.7764C82.5161 13.9869 81.9534 16.2779 79.4615 16.2779H76.5677V7.3954ZM106.431 31.2295C103.657 31.2295 103.336 28.1347 103.336 26.0447V15.675L100.643 15.8358V11.4146C100.643 9.20406 100.964 6.55136 103.698 6.55136C106.511 6.55136 106.712 9.20406 106.712 11.4146V15.5143L109.405 15.3535V26.0849C109.405 28.1347 109.204 31.2295 106.431 31.2295ZM134.605 20.9L132.355 13.9468L134.485 13.8262L134.766 20.9H134.605Z" fill="black"/>
</svg>
