<?xml version="1.0" encoding="UTF-8"?>
<svg width="43px" height="56px" viewBox="0 0 43 56" version="1.1" xmlns="http://www.w3.org/2000/svg" xmlns:xlink="http://www.w3.org/1999/xlink">
    <!-- Generator: Sketch 52.6 (67491) - http://www.bohemiancoding.com/sketch -->
    <title>doc--active</title>
    <desc>Created with Sketch.</desc>
    <g id="Page-1" stroke="none" stroke-width="1" fill="none" fill-rule="evenodd">
        <g id="doc--active">
            <path d="M30.485,0 L1.463,0 C0.655,0 0,0.655 0,1.926 L0,55 C0,55.345 0.655,56 1.463,56 L41.537,56 C42.345,56 43,55.345 43,55 L43,12.978 C43,12.282 42.907,12.058 42.743,11.893 L31.107,0.257 C30.942,0.093 30.718,0 30.485,0 Z" id="Path" fill="#E9E9E0"></path>
            <polygon id="Path" fill="#D9D7CA" points="31 0 31 12 43 12"></polygon>
            <path d="M12,13 L6,13 C5.448,13 5,12.552 5,12 C5,11.448 5.448,11 6,11 L12,11 C12.552,11 13,11.448 13,12 C13,12.552 12.552,13 12,13 Z" id="Path" fill="#8697CB"></path>
            <path d="M15,18 L6,18 C5.448,18 5,17.552 5,17 C5,16.448 5.448,16 6,16 L15,16 C15.552,16 16,16.448 16,17 C16,17.552 15.552,18 15,18 Z" id="Path" fill="#8697CB"></path>
            <path d="M19,18 C18.74,18 18.48,17.8893082 18.29,17.7081761 C18.11,17.5169811 18,17.2553459 18,16.9937107 C18,16.7320755 18.11,16.4704403 18.29,16.2792453 C18.66,15.9069182 19.34,15.9069182 19.71,16.2792453 C19.89,16.4704403 20,16.7320755 20,16.9937107 C20,17.2553459 19.89,17.5169811 19.71,17.7081761 C19.52,17.8893082 19.26,18 19,18 Z" id="Path" fill="#8697CB"></path>
            <path d="M31,18 L23,18 C22.448,18 22,17.552 22,17 C22,16.448 22.448,16 23,16 L31,16 C31.552,16 32,16.448 32,17 C32,17.552 31.552,18 31,18 Z" id="Path" fill="#8697CB"></path>
            <path d="M6,33 C5.74,33 5.48,32.8893082 5.29,32.7081761 C5.11,32.5169811 5,32.2553459 5,31.9937107 C5,31.7320755 5.11,31.4704403 5.29,31.2792453 C5.66,30.9069182 6.34,30.9069182 6.71,31.2792453 C6.89,31.4704403 7,31.7220126 7,31.9937107 C7,32.2553459 6.89,32.5169811 6.71,32.7081761 C6.52,32.8893082 6.26,33 6,33 Z" id="Path" fill="#8697CB"></path>
            <path d="M18,33 L10,33 C9.448,33 9,32.552 9,32 C9,31.448 9.448,31 10,31 L18,31 C18.552,31 19,31.448 19,32 C19,32.552 18.552,33 18,33 Z" id="Path" fill="#8697CB"></path>
            <path d="M37,18 L35,18 C34.448,18 34,17.552 34,17 C34,16.448 34.448,16 35,16 L37,16 C37.552,16 38,16.448 38,17 C38,17.552 37.552,18 37,18 Z" id="Path" fill="#8697CB"></path>
            <path d="M28,23 L6,23 C5.448,23 5,22.552 5,22 C5,21.448 5.448,21 6,21 L28,21 C28.552,21 29,21.448 29,22 C29,22.552 28.552,23 28,23 Z" id="Path" fill="#8697CB"></path>
            <path d="M37,23 L31,23 C30.448,23 30,22.552 30,22 C30,21.448 30.448,21 31,21 L37,21 C37.552,21 38,21.448 38,22 C38,22.552 37.552,23 37,23 Z" id="Path" fill="#8697CB"></path>
            <path d="M10,28 L6,28 C5.448,28 5,27.552 5,27 C5,26.448 5.448,26 6,26 L10,26 C10.552,26 11,26.448 11,27 C11,27.552 10.552,28 10,28 Z" id="Path" fill="#8697CB"></path>
            <path d="M24,28 L14,28 C13.448,28 13,27.552 13,27 C13,26.448 13.448,26 14,26 L24,26 C24.552,26 25,26.448 25,27 C25,27.552 24.552,28 24,28 Z" id="Path" fill="#8697CB"></path>
            <path d="M37,28 L28,28 C27.448,28 27,27.552 27,27 C27,26.448 27.448,26 28,26 L37,26 C37.552,26 38,26.448 38,27 C38,27.552 37.552,28 37,28 Z" id="Path" fill="#8697CB"></path>
            <path d="M41.537,56 L1.463,56 C0.655,56 0,55.345 0,54.537 L0,39 L43,39 L43,54.537 C43,55.345 42.345,56 41.537,56 Z" id="Path" fill="#0096E6"></path>
            <g id="Group" transform="translate(8.000000, 42.000000)" fill="#FFFFFF">
                <path d="M8.934,5.682 C8.934,6.511 8.845,7.22 8.667,7.808 C8.489,8.396 8.264,8.888 7.99,9.285 C7.716,9.682 7.409,9.994 7.067,10.222 C6.725,10.45 6.395,10.62 6.076,10.735 C5.757,10.849 5.465,10.922 5.201,10.954 C4.937,10.984 4.741,11 4.614,11 L0.8,11 L0.8,0.924 L3.834,0.924 C4.682,0.924 5.427,1.059 6.069,1.327 C6.711,1.595 7.245,1.954 7.669,2.4 C8.093,2.846 8.409,3.355 8.619,3.924 C8.829,4.494 8.934,5.08 8.934,5.682 Z M4.067,9.797 C5.179,9.797 5.981,9.442 6.473,8.731 C6.965,8.02 7.211,6.99 7.211,5.641 C7.211,5.222 7.161,4.807 7.061,4.397 C6.96,3.987 6.767,3.616 6.48,3.283 C6.193,2.95 5.803,2.681 5.311,2.476 C4.819,2.271 4.181,2.168 3.397,2.168 L2.44,2.168 L2.44,9.797 L4.067,9.797 Z" id="Shape" fill-rule="nonzero"></path>
                <path d="M18.894,5.914 C18.894,6.762 18.787,7.509 18.573,8.156 C18.359,8.803 18.062,9.341 17.684,9.769 C17.306,10.198 16.864,10.521 16.358,10.74 C15.852,10.959 15.298,11.068 14.697,11.068 C14.096,11.068 13.542,10.959 13.036,10.74 C12.53,10.521 12.088,10.198 11.71,9.769 C11.332,9.34 11.035,8.803 10.821,8.156 C10.607,7.509 10.5,6.761 10.5,5.914 C10.5,5.067 10.607,4.321 10.821,3.679 C11.035,3.036 11.331,2.501 11.71,2.073 C12.088,1.644 12.53,1.319 13.036,1.095 C13.542,0.871 14.096,0.76 14.697,0.76 C15.298,0.76 15.852,0.871 16.358,1.095 C16.864,1.319 17.306,1.644 17.684,2.073 C18.062,2.502 18.358,3.037 18.573,3.679 C18.786,4.321 18.894,5.066 18.894,5.914 Z M14.655,9.729 C14.992,9.729 15.313,9.663 15.619,9.531 C15.924,9.399 16.198,9.182 16.439,8.882 C16.68,8.581 16.87,8.187 17.006,7.699 C17.142,7.211 17.215,6.617 17.225,5.915 C17.216,5.231 17.145,4.65 17.013,4.172 C16.881,3.693 16.699,3.299 16.466,2.989 C16.233,2.679 15.969,2.456 15.673,2.319 C15.377,2.182 15.065,2.114 14.736,2.114 C14.399,2.114 14.077,2.177 13.772,2.305 C13.466,2.433 13.193,2.649 12.952,2.954 C12.71,3.26 12.521,3.653 12.385,4.137 C12.249,4.621 12.175,5.212 12.166,5.914 C12.175,6.598 12.246,7.181 12.378,7.664 C12.51,8.147 12.692,8.541 12.925,8.847 C13.158,9.153 13.422,9.375 13.718,9.517 C14.015,9.658 14.327,9.729 14.655,9.729 Z" id="Shape" fill-rule="nonzero"></path>
                <path d="M28.049,9.975 C27.675,10.339 27.251,10.613 26.778,10.795 C26.304,10.978 25.794,11.068 25.247,11.068 C24.645,11.068 24.092,10.959 23.586,10.74 C23.08,10.521 22.638,10.198 22.26,9.769 C21.882,9.34 21.585,8.803 21.371,8.156 C21.157,7.509 21.05,6.761 21.05,5.914 C21.05,5.067 21.157,4.321 21.371,3.679 C21.585,3.036 21.881,2.501 22.26,2.073 C22.638,1.644 23.082,1.319 23.593,1.095 C24.103,0.871 24.655,0.76 25.247,0.76 C25.794,0.76 26.304,0.851 26.778,1.033 C27.252,1.216 27.675,1.489 28.049,1.853 L26.914,2.865 C26.686,2.6 26.433,2.409 26.155,2.291 C25.877,2.173 25.588,2.113 25.287,2.113 C24.95,2.113 24.628,2.176 24.323,2.304 C24.017,2.432 23.744,2.648 23.503,2.953 C23.261,3.259 23.072,3.652 22.936,4.136 C22.8,4.62 22.726,5.211 22.717,5.913 C22.726,6.597 22.797,7.18 22.929,7.663 C23.061,8.146 23.243,8.54 23.476,8.846 C23.709,9.152 23.973,9.374 24.269,9.516 C24.565,9.658 24.877,9.728 25.206,9.728 C25.535,9.728 25.842,9.668 26.129,9.55 C26.416,9.432 26.678,9.24 26.915,8.976 L28.049,9.975 Z" id="Path"></path>
            </g>
        </g>
    </g>
</svg>