<?xml version="1.0" encoding="UTF-8"?>
<svg width="43px" height="56px" viewBox="0 0 43 56" version="1.1" xmlns="http://www.w3.org/2000/svg" xmlns:xlink="http://www.w3.org/1999/xlink">
    <!-- Generator: Sketch 52.6 (67491) - http://www.bohemiancoding.com/sketch -->
    <title>doc</title>
    <desc>Created with Sketch.</desc>
    <g id="Page-1" stroke="none" stroke-width="1" fill="none" fill-rule="evenodd" opacity="0.3">
        <g id="doc">
            <g id="Page-1">
                <g id="doc">
                    <g id="Group">
                        <path d="M30.485,0 L1.463,0 C0.655,0 0,0.655 0,1.926 L0,55 C0,55.345 0.655,56 1.463,56 L41.537,56 C42.345,56 43,55.345 43,55 L43,12.978 C43,12.282 42.907,12.058 42.743,11.893 L31.107,0.257 C30.942,0.093 30.718,0 30.485,0 Z" id="Path" fill="#FFFFFF"></path>
                        <polygon id="Path" fill="#D2D2D2" points="31.0156 0.149902 31.0156 11.9989 42.8646 11.9989"></polygon>
                        <path d="M11.9609,13 L5.96094,13 C5.40894,13 4.96094,12.552 4.96094,12 C4.96094,11.448 5.40894,11 5.96094,11 L11.9609,11 C12.5129,11 12.9609,11.448 12.9609,12 C12.9609,12.552 12.5129,13 11.9609,13 Z" id="Path" fill="#000000"></path>
                        <path d="M14.9609,17.9995 L5.96094,17.9995 C5.40894,17.9995 4.96094,17.5515 4.96094,16.9995 C4.96094,16.4475 5.40894,15.9995 5.96094,15.9995 L14.9609,15.9995 C15.5129,15.9995 15.9609,16.4475 15.9609,16.9995 C15.9609,17.5515 15.5129,17.9995 14.9609,17.9995 Z" id="Path" fill="#000000"></path>
                        <path d="M18.9453,18.0017 C18.6853,18.0017 18.4253,17.8917 18.2353,17.7117 C18.0553,17.5217 17.9453,17.2617 17.9453,17.0017 C17.9453,16.7417 18.0553,16.4817 18.2353,16.2917 C18.6053,15.9217 19.2853,15.9217 19.6553,16.2917 C19.8353,16.4817 19.9453,16.7417 19.9453,17.0017 C19.9453,17.2617 19.8353,17.5217 19.6553,17.7117 C19.4653,17.8917 19.2053,18.0017 18.9453,18.0017 Z" id="Path" fill="#000000"></path>
                        <path d="M30.9492,17.9995 L22.9492,17.9995 C22.3972,17.9995 21.9492,17.5515 21.9492,16.9995 C21.9492,16.4475 22.3972,15.9995 22.9492,15.9995 L30.9492,15.9995 C31.5012,15.9995 31.9492,16.4475 31.9492,16.9995 C31.9492,17.5515 31.5012,17.9995 30.9492,17.9995 Z" id="Path" fill="#000000"></path>
                        <path d="M5.96094,32.9997 C5.70094,32.9997 5.44094,32.8897 5.25094,32.7097 C5.07094,32.5197 4.96094,32.2597 4.96094,31.9997 C4.96094,31.7397 5.07094,31.4797 5.25094,31.2897 C5.62094,30.9197 6.30094,30.9197 6.67094,31.2897 C6.85094,31.4797 6.96094,31.7297 6.96094,31.9997 C6.96094,32.2597 6.85094,32.5197 6.67094,32.7097 C6.48094,32.8897 6.22094,32.9997 5.96094,32.9997 Z" id="Path" fill="#000000"></path>
                        <path d="M17.9727,33.0024 L9.97265998,33.0024 C9.42066,33.0024 8.97266,32.5544 8.97266,32.0024 C8.97266,31.4504 9.42066,31.0024 9.97265998,31.0024 L17.9727,31.0024 C18.5247,31.0024 18.9727,31.4504 18.9727,32.0024 C18.9727,32.5544 18.5247,33.0024 17.9727,33.0024 Z" id="Path" fill="#000000"></path>
                        <path d="M36.9766,17.9995 L34.9766,17.9995 C34.4246,17.9995 33.9766,17.5515 33.9766,16.9995 C33.9766,16.4475 34.4246,15.9995 34.9766,15.9995 L36.9766,15.9995 C37.5286,15.9995 37.9766,16.4475 37.9766,16.9995 C37.9766,17.5515 37.5286,17.9995 36.9766,17.9995 Z" id="Path" fill="#000000"></path>
                        <path d="M27.9609,22.998 L5.96094,22.998 C5.40894,22.998 4.96094,22.55 4.96094,21.998 C4.96094,21.446 5.40894,20.998 5.96094,20.998 L27.9609,20.998 C28.5129,20.998 28.9609,21.446 28.9609,21.998 C28.9609,22.55 28.5129,22.998 27.9609,22.998 Z" id="Path" fill="#000000"></path>
                        <path d="M36.9727,22.998 L30.9727,22.998 C30.4207,22.998 29.9727,22.55 29.9727,21.998 C29.9727,21.446 30.4207,20.998 30.9727,20.998 L36.9727,20.998 C37.5247,20.998 37.9727,21.446 37.9727,21.998 C37.9727,22.55 37.5247,22.998 36.9727,22.998 Z" id="Path" fill="#000000"></path>
                        <path d="M9.96094003,27.9976 L5.96094,27.9976 C5.40894,27.9976 4.96094,27.5496 4.96094,26.9976 C4.96094,26.4456 5.40894,25.9976 5.96094,25.9976 L9.96094003,25.9976 C10.5129,25.9976 10.9609,26.4456 10.9609,26.9976 C10.9609,27.5496 10.5129,27.9976 9.96094003,27.9976 Z" id="Path" fill="#000000"></path>
                        <path d="M23.9805,27.9976 L13.9805,27.9976 C13.4285,27.9976 12.9805,27.5496 12.9805,26.9976 C12.9805,26.4456 13.4285,25.9976 13.9805,25.9976 L23.9805,25.9976 C24.5325,25.9976 24.9805,26.4456 24.9805,26.9976 C24.9805,27.5496 24.5325,27.9976 23.9805,27.9976 Z" id="Path" fill="#000000"></path>
                        <path d="M36.9609,27.9976 L27.9609,27.9976 C27.4089,27.9976 26.9609,27.5496 26.9609,26.9976 C26.9609,26.4456 27.4089,25.9976 27.9609,25.9976 L36.9609,25.9976 C37.5129,25.9976 37.9609,26.4456 37.9609,26.9976 C37.9609,27.5496 37.5129,27.9976 36.9609,27.9976 Z" id="Path" fill="#000000"></path>
                        <path d="M41.537,55.9976 L1.463,55.9976 C0.655,55.9976 0,55.3426 0,54.5346 L0,38.9976 L43,38.9976 L43,54.5346 C43,55.3426 42.345,55.9976 41.537,55.9976 Z" id="Path" fill="#000000"></path>
                        <path d="M17.0051,47.6813 C17.0051,48.5103 16.9161,49.2193 16.7381,49.8073 C16.5601,50.3953 16.3351,50.8873 16.0611,51.2843 C15.7871,51.6813 15.4801,51.9933 15.1381,52.2213 C14.7961,52.4493 14.4661,52.6193 14.1471,52.7343 C13.8281,52.8483 13.5361,52.9213 13.2721,52.9533 C13.0081,52.9833 12.8121,52.9993 12.6851,52.9993 L8.87109,52.9993 L8.87109,42.9233 L11.9051,42.9233 C12.7531,42.9233 13.4981,43.0583 14.1401,43.3263 C14.7821,43.5943 15.3161,43.9533 15.7401,44.3993 C16.1641,44.8453 16.4801,45.3543 16.6901,45.9233 C16.9001,46.4933 17.0051,47.0793 17.0051,47.6813 Z M12.1381,51.7963 C13.2501,51.7963 14.0521,51.4413 14.5441,50.7303 C15.0361,50.0193 15.2821,48.9893 15.2821,47.6403 C15.2821,47.2213 15.2321,46.8063 15.1321,46.3963 C15.0311,45.9863 14.8381,45.6153 14.5511,45.2823 C14.2641,44.9493 13.8741,44.6803 13.3821,44.4753 C12.8901,44.2703 12.2521,44.1673 11.4681,44.1673 L10.5111,44.1673 L10.5111,51.7963 L12.1381,51.7963 Z" id="Shape" fill="#FFFFFF" fill-rule="nonzero"></path>
                        <path d="M26.9877,47.9123 C26.9877,48.7603 26.8807,49.5073 26.6667,50.1543 C26.4527,50.8013 26.1557,51.3393 25.7777,51.7673 C25.3997,52.1963 24.9577,52.5193 24.4517,52.7383 C23.9457,52.9573 23.3917,53.0663 22.7907,53.0663 C22.1897,53.0663 21.6358,52.9573 21.1298,52.7383 C20.6238,52.5193 20.1818,52.1963 19.8038,51.7673 C19.4258,51.3383 19.1288,50.8013 18.9148,50.1543 C18.7008,49.5073 18.5938,48.7593 18.5938,47.9123 C18.5938,47.0653 18.7008,46.3193 18.9148,45.6773 C19.1288,45.0343 19.4248,44.4993 19.8038,44.0713 C20.1818,43.6423 20.6238,43.3173 21.1298,43.0933 C21.6358,42.8693 22.1897,42.7583 22.7907,42.7583 C23.3917,42.7583 23.9457,42.8693 24.4517,43.0933 C24.9577,43.3173 25.3997,43.6423 25.7777,44.0713 C26.1557,44.5003 26.4517,45.0353 26.6667,45.6773 C26.8797,46.3193 26.9877,47.0643 26.9877,47.9123 Z M22.7487,51.7273 C23.0857,51.7273 23.4067,51.6613 23.7127,51.5293 C24.0177,51.3973 24.2917,51.1803 24.5327,50.8803 C24.7737,50.5793 24.9637,50.1853 25.0997,49.6973 C25.2357,49.2093 25.3087,48.6153 25.3187,47.9133 C25.3097,47.2293 25.2387,46.6483 25.1067,46.1703 C24.9747,45.6913 24.7927,45.2973 24.5597,44.9873 C24.3267,44.6773 24.0627,44.4543 23.7667,44.3173 C23.4707,44.1803 23.1587,44.1123 22.8297,44.1123 C22.4927,44.1123 22.1707,44.1753 21.8658,44.3033 C21.5598,44.4313 21.2868,44.6473 21.0458,44.9523 C20.8038,45.2583 20.6147,45.6513 20.4787,46.1353 C20.3427,46.6193 20.2687,47.2103 20.2597,47.9123 C20.2687,48.5963 20.3397,49.1793 20.4717,49.6623 C20.6037,50.1453 20.7858,50.5393 21.0188,50.8453 C21.2518,51.1513 21.5157,51.3733 21.8117,51.5153 C22.1087,51.6563 22.4207,51.7273 22.7487,51.7273 Z" id="Shape" fill="#FFFFFF" fill-rule="nonzero"></path>
                        <path d="M36.1318,51.9733 C35.7578,52.3373 35.3338,52.6113 34.8608,52.7933 C34.3868,52.9763 33.8768,53.0663 33.3298,53.0663 C32.7278,53.0663 32.1748,52.9573 31.6688,52.7383 C31.1628,52.5193 30.7208,52.1963 30.3428,51.7673 C29.9648,51.3383 29.6678,50.8013 29.4538,50.1543 C29.2398,49.5073 29.1328,48.7593 29.1328,47.9123 C29.1328,47.0653 29.2398,46.3193 29.4538,45.6773 C29.6678,45.0343 29.9638,44.4993 30.3428,44.0713 C30.7208,43.6423 31.1648,43.3173 31.6758,43.0933 C32.1858,42.8693 32.7378,42.7583 33.3298,42.7583 C33.8768,42.7583 34.3868,42.8493 34.8608,43.0313 C35.3348,43.2143 35.7578,43.4873 36.1318,43.8513 L34.9968,44.8633 C34.7688,44.5983 34.5158,44.4073 34.2378,44.2893 C33.9598,44.1713 33.6708,44.1113 33.3698,44.1113 C33.0328,44.1113 32.7108,44.1743 32.4058,44.3023 C32.0998,44.4303 31.8268,44.6463 31.5858,44.9513 C31.3438,45.2573 31.1548,45.6503 31.0188,46.1343 C30.8828,46.6183 30.8088,47.2093 30.7998,47.9113 C30.8088,48.5953 30.8798,49.1783 31.0118,49.6613 C31.1438,50.1443 31.3258,50.5383 31.5588,50.8443 C31.7918,51.1503 32.0558,51.3723 32.3518,51.5143 C32.6478,51.6563 32.9598,51.7263 33.2888,51.7263 C33.6178,51.7263 33.9248,51.6663 34.2118,51.5483 C34.4988,51.4303 34.7608,51.2383 34.9978,50.9743 L36.1318,51.9733 Z" id="Path" fill="#FFFFFF"></path>
                    </g>
                </g>
            </g>
        </g>
    </g>
</svg>