<svg width="21" height="21" viewBox="0 0 21 21" fill="#ccc" xmlns="http://www.w3.org/2000/svg">
    <path fill="black"
          d="M10.5 0C4.725 0 0 4.725 0 10.5C0 16.275 4.725 21 10.5 21C16.275 21 21 16.275 21 10.5C21 4.725 16.275 0 10.5 0ZM17.745 6.3H14.7C14.385 4.935 13.86 3.78 13.23 2.52C15.12 3.255 16.8 4.515 17.745 6.3ZM10.5 2.1C11.34 3.36 12.075 4.725 12.495 6.3H8.505C8.925 4.83 9.66 3.36 10.5 2.1ZM2.415 12.6C2.205 11.97 2.1 11.235 2.1 10.5C2.1 9.765 2.205 9.03 2.415 8.4H5.985C5.88 9.135 5.88 9.765 5.88 10.5C5.88 11.235 5.985 11.865 5.985 12.6H2.415ZM3.255 14.7H6.3C6.615 16.065 7.14 17.22 7.77 18.48C5.88 17.745 4.2 16.485 3.255 14.7ZM6.3 6.3H3.255C4.305 4.515 5.88 3.255 7.77 2.52C7.14 3.78 6.615 4.935 6.3 6.3ZM10.5 18.9C9.66 17.64 8.925 16.275 8.505 14.7H12.495C12.075 16.17 11.34 17.64 10.5 18.9ZM12.915 12.6H8.085C7.98 11.865 7.875 11.235 7.875 10.5C7.875 9.765 7.98 9.135 8.085 8.4H13.02C13.125 9.135 13.23 9.765 13.23 10.5C13.23 11.235 13.02 11.865 12.915 12.6ZM13.23 18.48C13.86 17.325 14.385 16.065 14.7 14.7H17.745C16.8 16.485 15.12 17.745 13.23 18.48ZM15.12 12.6C15.225 11.865 15.225 11.235 15.225 10.5C15.225 9.765 15.12 9.135 15.12 8.4H18.69C18.9 9.03 19.005 9.765 19.005 10.5C19.005 11.235 18.9 11.97 18.69 12.6H15.12Z"/>
</svg>
