<?xml version="1.0" encoding="UTF-8"?>
<svg width="16px" height="4px" viewBox="0 0 16 4" version="1.1" xmlns="http://www.w3.org/2000/svg" xmlns:xlink="http://www.w3.org/1999/xlink">
    <!-- Generator: Sketch 52.6 (67491) - http://www.bohemiancoding.com/sketch -->
    <title>more_horiz_24px</title>
    <desc>Created with Sketch.</desc>
    <g id="Page-1" stroke="none" stroke-width="1" fill="none" fill-rule="evenodd">
        <g id="more_horiz_24px" fill="#000000">
            <path d="M2,0 C0.9,0 0,0.9 0,2 C0,3.1 0.9,4 2,4 C3.1,4 4,3.1 4,2 C4,0.9 3.1,0 2,0 Z M14,0 C12.9,0 12,0.9 12,2 C12,3.1 12.9,4 14,4 C15.1,4 16,3.1 16,2 C16,0.9 15.1,0 14,0 Z M6,2 C6,0.9 6.9,0 8,0 C9.1,0 10,0.9 10,2 C10,3.1 9.1,4 8,4 C6.9,4 6,3.1 6,2 Z" id="Shape"></path>
        </g>
    </g>
</svg>