<?xml version="1.0" encoding="UTF-8"?>
<svg width="43px" height="56px" viewBox="0 0 43 56" version="1.1" xmlns="http://www.w3.org/2000/svg" xmlns:xlink="http://www.w3.org/1999/xlink">
    <!-- Generator: Sketch 52.6 (67491) - http://www.bohemiancoding.com/sketch -->
    <title>pdf--active</title>
    <desc>Created with Sketch.</desc>
    <g id="Page-1" stroke="none" stroke-width="1" fill="none" fill-rule="evenodd">
        <g id="pdf--active">
            <path d="M30.485,0 L1.463,0 C0.655,0 0,0.655 0,1.926 L0,55 C0,55.345 0.655,56 1.463,56 L41.537,56 C42.345,56 43,55.345 43,55 L43,12.978 C43,12.282 42.907,12.058 42.743,11.893 L31.107,0.257 C30.942,0.093 30.718,0 30.485,0 Z" id="Path" fill="#E9E9E0"></path>
            <polygon id="Path" fill="#D9D7CA" points="31 2.30926389e-14 31 11.849 42.849 11.849"></polygon>
            <path d="M12.9957701,33.416 C12.6477701,33.416 12.3137701,33.303 12.0287701,33.09 C10.9877701,32.309 10.8477701,31.44 10.9137701,30.848 C11.0957701,29.22 13.1087701,27.516 16.8987701,25.78 C18.4027701,22.484 19.8337701,18.423 20.6867701,15.03 C19.6887701,12.858 18.7187701,10.04 19.4257701,8.387 C19.6737701,7.808 19.9827701,7.364 20.5597701,7.172 C20.7877701,7.096 21.3637701,7 21.5757701,7 C22.0797701,7 22.5227701,7.649 22.8367701,8.049 C23.1317701,8.425 23.8007701,9.222 22.4637701,14.851 C23.8117701,17.635 25.7217701,20.471 27.5517701,22.413 C28.8627701,22.176 29.9907701,22.055 30.9097701,22.055 C32.4757701,22.055 33.4247701,22.42 33.8117701,23.172 C34.1317701,23.794 34.0007701,24.521 33.4217701,25.332 C32.8647701,26.111 32.0967701,26.523 31.2017701,26.523 C29.9857701,26.523 28.5697701,25.755 26.9907701,24.238 C24.1537701,24.831 20.8407701,25.889 18.1627701,27.06 C17.3267701,28.834 16.5257701,30.263 15.7797701,31.311 C14.7547701,32.746 13.8707701,33.416 12.9957701,33.416 Z M15.6577701,28.29 C13.5207701,29.491 12.6497701,30.478 12.5867701,31.034 C12.5767701,31.126 12.5497701,31.368 13.0177701,31.726 C13.1667701,31.679 14.0367701,31.282 15.6577701,28.29 Z M29.2947701,23.848 C30.1097701,24.475 30.3087701,24.792 30.8417701,24.792 C31.0757701,24.792 31.7427701,24.782 32.0517701,24.351 C32.2007701,24.142 32.2587701,24.008 32.2817701,23.936 C32.1587701,23.871 31.9957701,23.739 31.1067701,23.739 C30.6017701,23.74 29.9667701,23.762 29.2947701,23.848 Z M21.8247701,17.266 C21.1097701,19.74 20.1657701,22.411 19.1507701,24.83 C21.2407701,24.019 23.5127701,23.311 25.6467701,22.81 C24.2967701,21.242 22.9477701,19.284 21.8247701,17.266 Z M21.2177701,8.804 C21.1197701,8.837 19.8877701,10.561 21.3137701,12.02 C22.2627701,9.905 21.2607701,8.79 21.2177701,8.804 Z" id="Shape" fill="#CC4B4C" fill-rule="nonzero"></path>
            <path d="M41.537,56 L1.463,56 C0.655,56 0,55.345 0,54.537 L0,39 L43,39 L43,54.537 C43,55.345 42.345,56 41.537,56 Z" id="Path" fill="#CC4B4C"></path>
            <g id="Group" transform="translate(9.000000, 42.000000)" fill="#FFFFFF">
                <path d="M1.841,11.076 L0.2,11.076 L0.2,1 L3.098,1 C3.526,1 3.95,1.068 4.369,1.205 C4.788,1.342 5.164,1.547 5.497,1.82 C5.83,2.093 6.099,2.424 6.304,2.811 C6.509,3.198 6.612,3.633 6.612,4.117 C6.612,4.628 6.525,5.09 6.352,5.505 C6.179,5.92 5.937,6.269 5.627,6.551 C5.317,6.833 4.943,7.052 4.506,7.207 C4.069,7.362 3.585,7.439 3.057,7.439 L1.84,7.439 L1.84,11.076 L1.841,11.076 Z M1.841,2.244 L1.841,6.236 L3.345,6.236 C3.545,6.236 3.743,6.202 3.94,6.133 C4.136,6.065 4.316,5.953 4.48,5.798 C4.644,5.643 4.776,5.427 4.876,5.149 C4.976,4.871 5.026,4.527 5.026,4.117 C5.026,3.953 5.003,3.763 4.958,3.55 C4.912,3.336 4.819,3.131 4.678,2.935 C4.536,2.739 4.338,2.575 4.083,2.443 C3.828,2.311 3.49,2.245 3.071,2.245 L1.841,2.245 L1.841,2.244 Z" id="Shape" fill-rule="nonzero"></path>
                <path d="M16.685,5.682 C16.685,6.511 16.596,7.22 16.418,7.808 C16.24,8.396 16.015,8.888 15.741,9.285 C15.467,9.682 15.16,9.994 14.818,10.222 C14.476,10.45 14.146,10.62 13.827,10.735 C13.508,10.849 13.216,10.922 12.952,10.954 C12.688,10.984 12.492,11 12.364,11 L8.55,11 L8.55,0.924 L11.585,0.924 C12.433,0.924 13.178,1.059 13.82,1.327 C14.462,1.595 14.996,1.954 15.42,2.4 C15.844,2.846 16.16,3.355 16.37,3.924 C16.58,4.494 16.685,5.08 16.685,5.682 Z M11.818,9.797 C12.93,9.797 13.732,9.442 14.224,8.731 C14.716,8.02 14.962,6.99 14.962,5.641 C14.962,5.222 14.912,4.807 14.812,4.397 C14.711,3.987 14.518,3.616 14.231,3.283 C13.944,2.95 13.554,2.681 13.062,2.476 C12.57,2.271 11.932,2.168 11.148,2.168 L10.191,2.168 L10.191,9.797 L11.818,9.797 Z" id="Shape" fill-rule="nonzero"></path>
                <polygon id="Path" points="20.718 2.168 20.718 5.34 24.929 5.34 24.929 6.461 20.718 6.461 20.718 11 19.05 11 19.05 0.924 25.352 0.924 25.352 2.168"></polygon>
            </g>
        </g>
    </g>
</svg>