<?xml version="1.0" encoding="UTF-8"?>
<svg width="43px" height="56px" viewBox="0 0 43 56" version="1.1" xmlns="http://www.w3.org/2000/svg" xmlns:xlink="http://www.w3.org/1999/xlink">
    <!-- Generator: Sketch 52.6 (67491) - http://www.bohemiancoding.com/sketch -->
    <title>Group</title>
    <desc>Created with Sketch.</desc>
    <g id="Page-1" stroke="none" stroke-width="1" fill="none" fill-rule="evenodd" opacity="0.3">
        <g id="Group">
            <path d="M30.485,0 L1.463,0 C0.655,0 0,0.655 0,1.926 L0,55 C0,55.345 0.655,56 1.463,56 L41.537,56 C42.345,56 43,55.345 43,55 L43,12.978 C43,12.282 42.907,12.058 42.743,11.893 L31.107,0.257 C30.942,0.093 30.718,0 30.485,0 Z" id="Path" fill="#FFFFFF"></path>
            <polygon id="Path" fill="#D2D2D2" points="31.0156 0.149902 31.0156 11.9989 42.8646 11.9989"></polygon>
            <path d="M13.0137,33.3237 C12.6657,33.3237 12.3317,33.2107 12.0467,32.9977 C11.0057,32.2167 10.8657,31.3477 10.9317,30.7557 C11.1137,29.1277 13.1267,27.4237 16.9167,25.6877 C18.4207,22.3917 19.8517,18.3307 20.7047,14.9377 C19.7067,12.7657 18.7367,9.94772 19.4437,8.29472 C19.6917,7.71572 20.0007,7.27171 20.5777,7.07971 C20.8057,7.00371 21.3817,6.90771 21.5937,6.90771 C22.0977,6.90771 22.5407,7.55671 22.8547,7.95671 C23.1497,8.33272 23.8187,9.12972 22.4817,14.7587 C23.8297,17.5427 25.7397,20.3787 27.5697,22.3207 C28.8807,22.0837 30.0087,21.9627 30.9277,21.9627 C32.4937,21.9627 33.4427,22.3277 33.8297,23.0797 C34.1497,23.7017 34.0187,24.4287 33.4397,25.2397 C32.8827,26.0187 32.1147,26.4307 31.2197,26.4307 C30.0037,26.4307 28.5877,25.6627 27.0087,24.1457 C24.1717,24.7387 20.8587,25.7967 18.1807,26.9677 C17.3447,28.7417 16.5437,30.1707 15.7977,31.2187 C14.7727,32.6537 13.8887,33.3237 13.0137,33.3237 Z M15.6757,28.1977 C13.5387,29.3987 12.6677,30.3857 12.6047,30.9417 C12.5947,31.0337 12.5677,31.2757 13.0357,31.6337 C13.1847,31.5867 14.0547,31.1897 15.6757,28.1977 Z M29.3127,23.7557 C30.1277,24.3827 30.3267,24.6997 30.8597,24.6997 C31.0937,24.6997 31.7607,24.6897 32.0697,24.2587 C32.2187,24.0497 32.2767,23.9157 32.2997,23.8437 C32.1767,23.7787 32.0137,23.6467 31.1247,23.6467 C30.6197,23.6477 29.9847,23.6697 29.3127,23.7557 Z M21.8427,17.1737 C21.1277,19.6477 20.1837,22.3187 19.1687,24.7377 C21.2587,23.9267 23.5307,23.2187 25.6647,22.7177 C24.3147,21.1497 22.9657,19.1917 21.8427,17.1737 Z M21.2357,8.71172 C21.1377,8.74472 19.9057,10.4687 21.3317,11.9277 C22.2807,9.81272 21.2787,8.69772 21.2357,8.71172 Z" id="Shape" fill="#000000" fill-rule="nonzero"></path>
            <path d="M41.537,55.9976 L1.463,55.9976 C0.655,55.9976 0,55.3426 0,54.5346 L0,38.9976 L43,38.9976 L43,54.5346 C43,55.3426 42.345,55.9976 41.537,55.9976 Z" id="Path" fill="#000000"></path>
            <path d="M10.8793,52.9969 L9.23828,52.9969 L9.23828,42.9209 L12.1363,42.9209 C12.5643,42.9209 12.9883,42.9889 13.4073,43.1259 C13.8263,43.2629 14.2023,43.4679 14.5353,43.7409 C14.8683,44.0139 15.1373,44.3449 15.3423,44.7319 C15.5473,45.1189 15.6503,45.5539 15.6503,46.0379 C15.6503,46.5489 15.5633,47.0109 15.3903,47.4259 C15.2173,47.8409 14.9753,48.1899 14.6653,48.4719 C14.3553,48.7539 13.9813,48.9729 13.5443,49.1279 C13.1073,49.2829 12.6233,49.3599 12.0953,49.3599 L10.8783,49.3599 L10.8783,52.9969 L10.8793,52.9969 Z M10.8793,44.1649 L10.8793,48.1569 L12.3833,48.1569 C12.5833,48.1569 12.7813,48.1229 12.9783,48.0539 C13.1743,47.9859 13.3543,47.8739 13.5183,47.7189 C13.6823,47.5639 13.8143,47.3479 13.9143,47.0699 C14.0143,46.7919 14.0643,46.4479 14.0643,46.0379 C14.0643,45.8739 14.0413,45.6839 13.9963,45.4709 C13.9503,45.2569 13.8573,45.0519 13.7163,44.8559 C13.5743,44.6599 13.3763,44.4959 13.1213,44.3639 C12.8663,44.2319 12.5283,44.1659 12.1093,44.1659 L10.8793,44.1659 L10.8793,44.1649 Z" id="Shape" fill="#FFFFFF" fill-rule="nonzero"></path>
            <path d="M25.7288,47.6789 C25.7288,48.5079 25.6398,49.2169 25.4618,49.8049 C25.2838,50.3929 25.0588,50.8849 24.7847,51.2819 C24.5107,51.6789 24.2037,51.9909 23.8617,52.2189 C23.5197,52.4469 23.1898,52.6169 22.8708,52.7319 C22.5518,52.8459 22.2598,52.9189 21.9958,52.9509 C21.7318,52.9809 21.5358,52.9969 21.4078,52.9969 L17.5938,52.9969 L17.5938,42.9209 L20.6287,42.9209 C21.4767,42.9209 22.2218,43.0559 22.8638,43.3239 C23.5058,43.5919 24.0398,43.9509 24.4638,44.3969 C24.8878,44.8429 25.2037,45.3519 25.4137,45.9209 C25.6237,46.4909 25.7288,47.0769 25.7288,47.6789 Z M20.8617,51.7939 C21.9737,51.7939 22.7757,51.4389 23.2677,50.7279 C23.7597,50.0169 24.0058,48.9869 24.0058,47.6379 C24.0058,47.2189 23.9558,46.8039 23.8558,46.3939 C23.7548,45.9839 23.5617,45.6129 23.2747,45.2799 C22.9877,44.9469 22.5978,44.6779 22.1058,44.4729 C21.6138,44.2679 20.9757,44.1649 20.1917,44.1649 L19.2348,44.1649 L19.2348,51.7939 L20.8617,51.7939 Z" id="Shape" fill="#FFFFFF" fill-rule="nonzero"></path>
            <polygon id="Path" fill="#FFFFFF" points="29.75 44.1649 29.75 47.3369 33.961 47.3369 33.961 48.4579 29.75 48.4579 29.75 52.9969 28.082 52.9969 28.082 42.9209 34.384 42.9209 34.384 44.1649"></polygon>
        </g>
    </g>
</svg>