<?xml version="1.0" encoding="iso-8859-1"?><svg viewBox="0 0 512 512" xmlns="http://www.w3.org/2000/svg" xmlns:xlink="http://www.w3.org/1999/xlink"><style>:root>svg{display:none}:root>svg:target{display:block}</style><svg viewBox="0 0 240.823 240.823" id="arrow-left" xmlns="http://www.w3.org/2000/svg"><path d="M57.633 129.007L165.93 237.268c4.752 4.74 12.451 4.74 17.215 0 4.752-4.74 4.752-12.439 0-17.179l-99.707-99.671 99.695-99.671c4.752-4.74 4.752-12.439 0-17.191-4.752-4.74-12.463-4.74-17.215 0L57.621 111.816c-4.679 4.691-4.679 12.511.012 17.191z"/></svg><svg viewBox="0 0 240.823 240.823" id="arrow-left-white" xmlns="http://www.w3.org/2000/svg"><path d="M57.633 129.007L165.93 237.268c4.752 4.74 12.451 4.74 17.215 0 4.752-4.74 4.752-12.439 0-17.179l-99.707-99.671 99.695-99.671c4.752-4.74 4.752-12.439 0-17.191-4.752-4.74-12.463-4.74-17.215 0L57.621 111.816c-4.679 4.691-4.679 12.511.012 17.191z" data-original="#000000" class="bactive-path" data-old_color="#ffffff" fill="#fff"/></svg><svg viewBox="0 0 31.143 31.143" id="arrow-right" xmlns="http://www.w3.org/2000/svg"><path d="M0 15.571a3.088 3.088 0 0 0 3.085 3.083l17.528-.002-4.738 4.739c-1.283 1.284-1.349 3.301-.145 4.507 1.205 1.201 3.222 1.138 4.507-.146l9.896-9.898c1.287-1.283 1.352-3.301.146-4.506-.033-.029-.068-.051-.1-.08-.041-.043-.07-.094-.113-.139l-9.764-9.762c-1.268-1.266-3.27-1.316-4.474-.111-1.205 1.205-1.153 3.208.111 4.476l4.755 4.754H3.085A3.083 3.083 0 0 0 0 15.571z" data-original="#000000" class="cactive-path" data-old_color="#ffffff" fill="#fff"/></svg><svg fill="none" viewBox="0 0 12 8" id="arrow-up" xmlns="http://www.w3.org/2000/svg"><path d="M1 7l5-5 5 5" stroke="#000" stroke-width="2"/></svg><svg fill="none" viewBox="0 0 142 38" id="astron-logo" xmlns="http://www.w3.org/2000/svg"><path d="M19.815 20.82L15.475.883H5.224L.603 22.025l2.693-.16L0 36.895h8.561l1.005-7.074h6.672l1.206 7.074h8.6l-3.536-16.238-2.693.161zm-9.325 2.652l.322-2.09-2.693.16 2.13-14.067h.08l2.01 13.867 2.693-.161.322 2.331H10.49v-.04zM42.365 19.413a19.268 19.268 0 0 0-.844-.925c-1.969-1.848-4.742-3.094-7.918-5.104-1.688-1.165-2.813-2.25-2.572-4.461.201-1.608 1.206-2.573 2.934-2.412 2.814.201 2.693 3.095 2.814 5.225h7.837C45.018 4.944 41.24 0 33.845 0c-6.592 0-10.732 3.497-10.732 10.29 0 3.174.925 5.425 2.452 7.234.884 1.005 1.97 1.93 3.215 2.773l2.733-.16a53.57 53.57 0 0 0 3.135 1.929c2.211 1.366 4.743 2.532 4.743 5.546 0 1.849-.884 3.618-2.853 3.618-2.693 0-3.377-1.85-3.377-3.9V24.76h-7.837v3.858c0 4.823 3.296 9.164 11.053 9.164 7.074 0 10.932-3.859 10.932-10.812 0-3.698-.804-5.948-2.25-7.677l-2.694.12zM45.137 8.118h6.672V18.89l2.693-.16v18.166h8.48v-18.73l-2.693.161V8.118h6.873V.884H45.137v7.234zM139.308 13.464V.884h-8.079l.523 13.063-2.13.12L125.361.884h-8.762v13.987l-1.406.08v-4.14c0-6.953-4.02-10.811-11.455-10.811-7.436 0-11.576 3.858-11.576 10.812v5.546l-2.572.161c1.005-1.487 1.326-3.376 1.326-5.667 0-7.194-3.496-10.008-10.45-10.008h-12.42v17.001l2.694-.16v19.171h8.52V22.588h2.814c1.97.16 2.653 1.608 2.894 3.818.241 2.211.04 5.225.2 8.4.041.724.242 1.407.483 2.09h9.285v-.482c-.402-.321-.644-.763-.804-1.246-.483-2.33-.523-8.56-.764-11.454-.16-2.533-1.849-4.14-4.22-4.703v-.08c1.447-.643 2.452-1.488 3.135-2.533l2.653-.16v9.123c0 8.16 3.014 12.42 11.575 12.42s11.455-4.26 11.455-12.42v-10.53l1.407-.08v22.146h8.078l-.844-20.177.081-.08 6.631 20.297h8.682V13.304l-2.693.16zm-62.74-6.069c4.14-.08 5.948.08 5.948 4.381 0 2.21-.563 4.502-3.055 4.502h-2.893V7.395zM106.43 31.23c-2.774 0-3.095-3.094-3.095-5.184v-10.37l-2.693.16v-4.42c0-2.21.321-4.864 3.055-4.864 2.813 0 3.014 2.653 3.014 4.864v4.1l2.693-.162v10.732c0 2.05-.201 5.145-2.974 5.145zM134.605 20.9l-2.25-6.953 2.13-.12.281 7.073h-.161z" fill="#000"/></svg><svg fill="none" viewBox="0 0 10 10" id="check" xmlns="http://www.w3.org/2000/svg"><path d="M4 7.5l-.707.707.805.805.695-.902L4 7.5zM.293 5.207l3 3 1.414-1.414-3-3L.293 5.207zm4.5 2.903l5-6.5L8.207.39l-5 6.5 1.586 1.22z" fill="#FFC20E"/></svg><svg viewBox="0 0 43 56" id="doc" xmlns="http://www.w3.org/2000/svg"><g fill="none" fill-rule="evenodd" opacity=".3"><path d="M30.485 0H1.463C.655 0 0 .655 0 1.926V55c0 .345.655 1 1.463 1h40.074c.808 0 1.463-.655 1.463-1V12.978c0-.696-.093-.92-.257-1.085L31.107.257A.884.884 0 0 0 30.485 0z" fill="#FFF"/><path fill="#D2D2D2" d="M31.016.15v11.849h11.849z"/><path d="M11.96 13h-6a1 1 0 0 1 0-2h6a1 1 0 0 1 0 2zM14.96 18h-9a1 1 0 0 1 0-2h9a1 1 0 0 1 0 2zM18.945 18.002c-.26 0-.52-.11-.71-.29-.18-.19-.29-.45-.29-.71 0-.26.11-.52.29-.71.37-.37 1.05-.37 1.42 0 .18.19.29.45.29.71 0 .26-.11.52-.29.71-.19.18-.45.29-.71.29zM30.95 18h-8a1 1 0 0 1 0-2h8a1 1 0 0 1 0 2zM5.96 33c-.26 0-.52-.11-.71-.29-.18-.19-.29-.45-.29-.71 0-.26.11-.52.29-.71.37-.37 1.05-.37 1.42 0 .18.19.29.44.29.71 0 .26-.11.52-.29.71-.19.18-.45.29-.71.29zM17.973 33.002h-8a1 1 0 0 1 0-2h8a1 1 0 0 1 0 2zM36.977 18h-2a1 1 0 0 1 0-2h2a1 1 0 0 1 0 2zM27.96 22.998h-22a1 1 0 0 1 0-2h22a1 1 0 0 1 0 2zM36.973 22.998h-6a1 1 0 0 1 0-2h6a1 1 0 0 1 0 2zM9.96 27.998h-4a1 1 0 0 1 0-2h4a1 1 0 0 1 0 2zM23.98 27.998h-10a1 1 0 0 1 0-2h10a1 1 0 0 1 0 2zM36.96 27.998h-9a1 1 0 0 1 0-2h9a1 1 0 0 1 0 2zM41.537 55.998H1.463A1.463 1.463 0 0 1 0 54.535V38.998h43v15.537c0 .808-.655 1.463-1.463 1.463z" fill="#000"/><path d="M17.005 47.681c0 .83-.089 1.538-.267 2.126-.178.588-.403 1.08-.677 1.477a3.478 3.478 0 0 1-.923.937 4.63 4.63 0 0 1-.99.513 4.094 4.094 0 0 1-.876.22c-.264.03-.46.045-.587.045H8.871V42.923h3.034c.848 0 1.593.135 2.235.403a4.64 4.64 0 0 1 1.6 1.073c.424.446.74.955.95 1.524.21.57.315 1.156.315 1.758zm-4.867 4.115c1.112 0 1.914-.355 2.406-1.066.492-.71.738-1.74.738-3.09 0-.419-.05-.834-.15-1.244a2.661 2.661 0 0 0-.58-1.114c-.288-.333-.678-.602-1.17-.807-.492-.205-1.13-.308-1.914-.308h-.957v7.63h1.627zM26.988 47.912c0 .848-.107 1.595-.321 2.242-.214.647-.511 1.185-.89 1.613a3.72 3.72 0 0 1-1.325.971 4.138 4.138 0 0 1-1.661.328 4.138 4.138 0 0 1-1.661-.328 3.72 3.72 0 0 1-1.326-.97c-.378-.43-.675-.967-.89-1.614-.213-.647-.32-1.395-.32-2.242s.107-1.593.32-2.235c.215-.643.51-1.178.89-1.606a3.8 3.8 0 0 1 1.326-.978 4.058 4.058 0 0 1 1.66-.335c.602 0 1.156.111 1.662.335a3.8 3.8 0 0 1 1.326.978c.378.43.674.964.889 1.606.213.642.32 1.387.32 2.235zm-4.24 3.815c.338 0 .659-.066.965-.198.305-.132.579-.349.82-.649.24-.3.43-.695.567-1.183.136-.488.209-1.082.219-1.784-.01-.684-.08-1.265-.212-1.743-.132-.479-.314-.873-.547-1.183a2.107 2.107 0 0 0-.793-.67 2.203 2.203 0 0 0-.937-.205c-.337 0-.66.063-.964.191a2.065 2.065 0 0 0-.82.65c-.242.305-.431.698-.567 1.182-.136.484-.21 1.075-.22 1.777.01.684.08 1.267.213 1.75.132.483.314.877.547 1.183.233.306.497.528.793.67.297.141.609.212.937.212z" fill="#FFF" fill-rule="nonzero"/><path d="M36.132 51.973a3.73 3.73 0 0 1-1.271.82 4.212 4.212 0 0 1-1.531.273 4.135 4.135 0 0 1-1.661-.328 3.72 3.72 0 0 1-1.326-.97c-.378-.43-.675-.967-.89-1.614-.213-.647-.32-1.395-.32-2.242s.107-1.593.32-2.235c.215-.643.51-1.178.89-1.606a3.78 3.78 0 0 1 1.333-.978 4.069 4.069 0 0 1 1.654-.335c.547 0 1.057.091 1.53.273.475.183.898.456 1.272.82l-1.135 1.012a2.072 2.072 0 0 0-1.627-.752c-.337 0-.66.063-.964.191a2.065 2.065 0 0 0-.82.65c-.242.305-.431.698-.567 1.182-.136.484-.21 1.075-.22 1.777.01.684.08 1.267.213 1.75.132.483.314.877.547 1.183.233.306.497.528.793.67.296.142.608.212.937.212.329 0 .636-.06.923-.178.287-.118.549-.31.786-.574l1.134 1z" fill="#FFF"/></g></svg><svg viewBox="0 0 43 56" id="doc--active" xmlns="http://www.w3.org/2000/svg"><g fill="none" fill-rule="evenodd"><path d="M30.485 0H1.463C.655 0 0 .655 0 1.926V55c0 .345.655 1 1.463 1h40.074c.808 0 1.463-.655 1.463-1V12.978c0-.696-.093-.92-.257-1.085L31.107.257A.884.884 0 0 0 30.485 0z" fill="#E9E9E0"/><path fill="#D9D7CA" d="M31 0v12h12z"/><path d="M12 13H6a1 1 0 0 1 0-2h6a1 1 0 0 1 0 2zM15 18H6a1 1 0 0 1 0-2h9a1 1 0 0 1 0 2zM19 18c-.26 0-.52-.11-.71-.292a1.062 1.062 0 0 1-.29-.714c0-.262.11-.524.29-.715.37-.372 1.05-.372 1.42 0 .18.191.29.453.29.715 0 .261-.11.523-.29.714-.19.181-.45.292-.71.292zM31 18h-8a1 1 0 0 1 0-2h8a1 1 0 0 1 0 2zM6 33c-.26 0-.52-.11-.71-.292a1.062 1.062 0 0 1-.29-.714c0-.262.11-.524.29-.715.37-.372 1.05-.372 1.42 0 .18.191.29.443.29.715 0 .261-.11.523-.29.714-.19.181-.45.292-.71.292zM18 33h-8a1 1 0 0 1 0-2h8a1 1 0 0 1 0 2zM37 18h-2a1 1 0 0 1 0-2h2a1 1 0 0 1 0 2zM28 23H6a1 1 0 0 1 0-2h22a1 1 0 0 1 0 2zM37 23h-6a1 1 0 0 1 0-2h6a1 1 0 0 1 0 2zM10 28H6a1 1 0 0 1 0-2h4a1 1 0 0 1 0 2zM24 28H14a1 1 0 0 1 0-2h10a1 1 0 0 1 0 2zM37 28h-9a1 1 0 0 1 0-2h9a1 1 0 0 1 0 2z" fill="#8697CB"/><path d="M41.537 56H1.463A1.463 1.463 0 0 1 0 54.537V39h43v15.537c0 .808-.655 1.463-1.463 1.463z" fill="#0096E6"/><g fill="#FFF"><path d="M16.934 47.682c0 .829-.089 1.538-.267 2.126-.178.588-.403 1.08-.677 1.477a3.478 3.478 0 0 1-.923.937 4.63 4.63 0 0 1-.991.513 4.094 4.094 0 0 1-.875.219c-.264.03-.46.046-.587.046H8.8V42.924h3.034c.848 0 1.593.135 2.235.403a4.64 4.64 0 0 1 1.6 1.073c.424.446.74.955.95 1.524.21.57.315 1.156.315 1.758zm-4.867 4.115c1.112 0 1.914-.355 2.406-1.066.492-.711.738-1.741.738-3.09 0-.419-.05-.834-.15-1.244a2.661 2.661 0 0 0-.581-1.114c-.287-.333-.677-.602-1.169-.807-.492-.205-1.13-.308-1.914-.308h-.957v7.629h1.627zM26.894 47.914c0 .848-.107 1.595-.321 2.242-.214.647-.511 1.185-.889 1.613a3.72 3.72 0 0 1-1.326.971 4.138 4.138 0 0 1-1.661.328 4.138 4.138 0 0 1-1.661-.328 3.72 3.72 0 0 1-1.326-.971c-.378-.429-.675-.966-.889-1.613-.214-.647-.321-1.395-.321-2.242s.107-1.593.321-2.235c.214-.643.51-1.178.889-1.606a3.8 3.8 0 0 1 1.326-.978 4.058 4.058 0 0 1 1.661-.335c.601 0 1.155.111 1.661.335a3.8 3.8 0 0 1 1.326.978c.378.429.674.964.889 1.606.213.642.321 1.387.321 2.235zm-4.239 3.815c.337 0 .658-.066.964-.198.305-.132.579-.349.82-.649.241-.301.431-.695.567-1.183.136-.488.209-1.082.219-1.784-.009-.684-.08-1.265-.212-1.743-.132-.479-.314-.873-.547-1.183a2.107 2.107 0 0 0-.793-.67 2.203 2.203 0 0 0-.937-.205c-.337 0-.659.063-.964.191a2.065 2.065 0 0 0-.82.649c-.242.306-.431.699-.567 1.183-.136.484-.21 1.075-.219 1.777.009.684.08 1.267.212 1.75.132.483.314.877.547 1.183.233.306.497.528.793.67.297.141.609.212.937.212z" fill-rule="nonzero"/><path d="M36.049 51.975a3.73 3.73 0 0 1-1.271.82 4.212 4.212 0 0 1-1.531.273 4.135 4.135 0 0 1-1.661-.328 3.72 3.72 0 0 1-1.326-.971c-.378-.429-.675-.966-.889-1.613-.214-.647-.321-1.395-.321-2.242s.107-1.593.321-2.235c.214-.643.51-1.178.889-1.606a3.78 3.78 0 0 1 1.333-.978 4.069 4.069 0 0 1 1.654-.335c.547 0 1.057.091 1.531.273.474.183.897.456 1.271.82l-1.135 1.012a2.072 2.072 0 0 0-1.627-.752c-.337 0-.659.063-.964.191a2.065 2.065 0 0 0-.82.649c-.242.306-.431.699-.567 1.183-.136.484-.21 1.075-.219 1.777.009.684.08 1.267.212 1.75.132.483.314.877.547 1.183.233.306.497.528.793.67.296.142.608.212.937.212.329 0 .636-.06.923-.178.287-.118.549-.31.786-.574l1.134.999z"/></g></g></svg><svg fill="none" viewBox="0 0 6 12" id="fb" xmlns="http://www.w3.org/2000/svg"><path d="M1.297 2.324v1.652H0v2.02h1.297V12H3.96V5.997h1.788s.167-.97.248-2.028H3.971V2.587c0-.206.29-.484.578-.484H6V0H4.026c-2.795 0-2.73 2.022-2.73 2.324z" fill="#000" fill-opacity=".7"/></svg><svg fill="none" viewBox="0 0 21 21" id="globus" xmlns="http://www.w3.org/2000/svg"><path d="M10.5 0C4.725 0 0 4.725 0 10.5S4.725 21 10.5 21 21 16.275 21 10.5 16.275 0 10.5 0zm7.245 6.3H14.7c-.315-1.365-.84-2.52-1.47-3.78 1.89.735 3.57 1.995 4.515 3.78zM10.5 2.1c.84 1.26 1.575 2.625 1.995 4.2h-3.99c.42-1.47 1.155-2.94 1.995-4.2zM2.415 12.6c-.21-.63-.315-1.365-.315-2.1 0-.735.105-1.47.315-2.1h3.57c-.105.735-.105 1.365-.105 2.1 0 .735.105 1.365.105 2.1h-3.57zm.84 2.1H6.3c.315 1.365.84 2.52 1.47 3.78-1.89-.735-3.57-1.995-4.515-3.78zM6.3 6.3H3.255C4.305 4.515 5.88 3.255 7.77 2.52 7.14 3.78 6.615 4.935 6.3 6.3zm4.2 12.6c-.84-1.26-1.575-2.625-1.995-4.2h3.99c-.42 1.47-1.155 2.94-1.995 4.2zm2.415-6.3h-4.83c-.105-.735-.21-1.365-.21-2.1 0-.735.105-1.365.21-2.1h4.935c.105.735.21 1.365.21 2.1 0 .735-.21 1.365-.315 2.1zm.315 5.88c.63-1.155 1.155-2.415 1.47-3.78h3.045c-.945 1.785-2.625 3.045-4.515 3.78zm1.89-5.88c.105-.735.105-1.365.105-2.1 0-.735-.105-1.365-.105-2.1h3.57c.21.63.315 1.365.315 2.1 0 .735-.105 1.47-.315 2.1h-3.57z" fill="#fff"/></svg><svg fill="#ccc" viewBox="0 0 21 21" id="globus--black" xmlns="http://www.w3.org/2000/svg"><path fill="#000" d="M10.5 0C4.725 0 0 4.725 0 10.5S4.725 21 10.5 21 21 16.275 21 10.5 16.275 0 10.5 0zm7.245 6.3H14.7c-.315-1.365-.84-2.52-1.47-3.78 1.89.735 3.57 1.995 4.515 3.78zM10.5 2.1c.84 1.26 1.575 2.625 1.995 4.2h-3.99c.42-1.47 1.155-2.94 1.995-4.2zM2.415 12.6c-.21-.63-.315-1.365-.315-2.1 0-.735.105-1.47.315-2.1h3.57c-.105.735-.105 1.365-.105 2.1 0 .735.105 1.365.105 2.1h-3.57zm.84 2.1H6.3c.315 1.365.84 2.52 1.47 3.78-1.89-.735-3.57-1.995-4.515-3.78zM6.3 6.3H3.255C4.305 4.515 5.88 3.255 7.77 2.52 7.14 3.78 6.615 4.935 6.3 6.3zm4.2 12.6c-.84-1.26-1.575-2.625-1.995-4.2h3.99c-.42 1.47-1.155 2.94-1.995 4.2zm2.415-6.3h-4.83c-.105-.735-.21-1.365-.21-2.1 0-.735.105-1.365.21-2.1h4.935c.105.735.21 1.365.21 2.1 0 .735-.21 1.365-.315 2.1zm.315 5.88c.63-1.155 1.155-2.415 1.47-3.78h3.045c-.945 1.785-2.625 3.045-4.515 3.78zm1.89-5.88c.105-.735.105-1.365.105-2.1 0-.735-.105-1.365-.105-2.1h3.57c.21.63.315 1.365.315 2.1 0 .735-.105 1.47-.315 2.1h-3.57z"/></svg><svg viewBox="0 0 43 56" id="pdf" xmlns="http://www.w3.org/2000/svg"><g fill="none" fill-rule="evenodd" opacity=".3"><path d="M30.485 0H1.463C.655 0 0 .655 0 1.926V55c0 .345.655 1 1.463 1h40.074c.808 0 1.463-.655 1.463-1V12.978c0-.696-.093-.92-.257-1.085L31.107.257A.884.884 0 0 0 30.485 0z" fill="#FFF"/><path fill="#D2D2D2" d="M31.016.15v11.849h11.849z"/><path d="M13.014 33.324c-.348 0-.682-.113-.967-.326-1.041-.781-1.181-1.65-1.115-2.242.182-1.628 2.195-3.332 5.985-5.068 1.504-3.296 2.935-7.357 3.788-10.75-.998-2.172-1.968-4.99-1.261-6.643.248-.58.557-1.023 1.134-1.215a4.91 4.91 0 0 1 1.016-.172c.504 0 .947.649 1.26 1.049.296.376.965 1.173-.372 6.802 1.348 2.784 3.258 5.62 5.088 7.562 1.31-.237 2.439-.358 3.358-.358 1.566 0 2.515.365 2.902 1.117.32.622.189 1.349-.39 2.16-.557.779-1.325 1.19-2.22 1.19-1.216 0-2.632-.767-4.211-2.284-2.837.593-6.15 1.65-8.828 2.822-.836 1.774-1.637 3.203-2.383 4.25-1.025 1.436-1.91 2.106-2.784 2.106zm2.662-5.126c-2.137 1.2-3.008 2.188-3.071 2.744-.01.092-.037.334.43.692.15-.047 1.02-.444 2.64-3.436zm13.637-4.442c.815.627 1.014.944 1.547.944.234 0 .9-.01 1.21-.441.149-.21.207-.343.23-.415-.123-.065-.286-.197-1.175-.197-.505 0-1.14.023-1.812.109zm-7.47-6.582a71.291 71.291 0 0 1-2.674 7.564 49.966 49.966 0 0 1 6.496-2.02c-1.35-1.568-2.7-3.526-3.822-5.544zm-.607-8.462c-.098.033-1.33 1.757.096 3.216.949-2.115-.053-3.23-.096-3.216z" fill="#000" fill-rule="nonzero"/><path d="M41.537 55.998H1.463A1.463 1.463 0 0 1 0 54.535V38.998h43v15.537c0 .808-.655 1.463-1.463 1.463z" fill="#000"/><path d="M10.88 52.997H9.237V42.92h2.898c.428 0 .852.068 1.271.205.42.137.795.342 1.128.615.333.273.602.604.807.99.205.388.308.823.308 1.307 0 .51-.087.973-.26 1.388a2.9 2.9 0 0 1-.725 1.046c-.31.282-.684.5-1.12.656a4.314 4.314 0 0 1-1.45.232h-1.217v3.637h.001zm0-8.832v3.992h1.503c.2 0 .398-.034.595-.103.196-.068.376-.18.54-.335.164-.155.296-.371.396-.65.1-.277.15-.621.15-1.031 0-.164-.023-.354-.068-.567a1.637 1.637 0 0 0-.28-.615 1.657 1.657 0 0 0-.595-.492c-.255-.132-.593-.198-1.012-.198h-1.23v-.001zM25.729 47.679c0 .829-.09 1.538-.267 2.126-.178.588-.403 1.08-.677 1.477a3.478 3.478 0 0 1-.923.937 4.629 4.629 0 0 1-.991.513 4.094 4.094 0 0 1-.875.219c-.264.03-.46.046-.588.046h-3.814V42.92h3.035c.848 0 1.593.135 2.235.403a4.64 4.64 0 0 1 1.6 1.073c.424.446.74.955.95 1.524.21.57.315 1.156.315 1.758zm-4.867 4.115c1.112 0 1.914-.355 2.406-1.066.492-.711.738-1.741.738-3.09 0-.42-.05-.834-.15-1.244a2.662 2.662 0 0 0-.581-1.114c-.287-.333-.677-.602-1.17-.807-.491-.205-1.13-.308-1.913-.308h-.957v7.629h1.627z" fill="#FFF" fill-rule="nonzero"/><path fill="#FFF" d="M29.75 44.165v3.172h4.211v1.12H29.75v4.54h-1.668V42.92h6.302v1.244z"/></g></svg><svg viewBox="0 0 43 56" id="pdf--active" xmlns="http://www.w3.org/2000/svg"><g fill="none" fill-rule="evenodd"><path d="M30.485 0H1.463C.655 0 0 .655 0 1.926V55c0 .345.655 1 1.463 1h40.074c.808 0 1.463-.655 1.463-1V12.978c0-.696-.093-.92-.257-1.085L31.107.257A.884.884 0 0 0 30.485 0z" fill="#E9E9E0"/><path fill="#D9D7CA" d="M31 0v11.849h11.849z"/><path d="M12.996 33.416c-.348 0-.682-.113-.967-.326-1.041-.781-1.181-1.65-1.115-2.242.182-1.628 2.195-3.332 5.985-5.068 1.504-3.296 2.935-7.357 3.788-10.75-.998-2.172-1.968-4.99-1.261-6.643.248-.579.557-1.023 1.134-1.215A4.91 4.91 0 0 1 21.576 7c.504 0 .947.649 1.26 1.049.296.376.965 1.173-.372 6.802 1.348 2.784 3.258 5.62 5.088 7.562 1.31-.237 2.439-.358 3.358-.358 1.566 0 2.515.365 2.902 1.117.32.622.189 1.349-.39 2.16-.557.779-1.325 1.191-2.22 1.191-1.216 0-2.632-.768-4.211-2.285-2.837.593-6.15 1.651-8.828 2.822-.836 1.774-1.637 3.203-2.383 4.251-1.025 1.435-1.91 2.105-2.784 2.105zm2.662-5.126c-2.137 1.201-3.008 2.188-3.071 2.744-.01.092-.037.334.43.692.15-.047 1.02-.444 2.64-3.436zm13.637-4.442c.815.627 1.014.944 1.547.944.234 0 .9-.01 1.21-.441.149-.209.207-.343.23-.415-.123-.065-.286-.197-1.175-.197-.505.001-1.14.023-1.812.109zm-7.47-6.582a71.291 71.291 0 0 1-2.674 7.564 49.966 49.966 0 0 1 6.496-2.02c-1.35-1.568-2.7-3.526-3.822-5.544zm-.607-8.462c-.098.033-1.33 1.757.096 3.216.949-2.115-.053-3.23-.096-3.216z" fill="#CC4B4C" fill-rule="nonzero"/><path d="M41.537 56H1.463A1.463 1.463 0 0 1 0 54.537V39h43v15.537c0 .808-.655 1.463-1.463 1.463z" fill="#CC4B4C"/><g fill="#FFF"><path d="M10.841 53.076H9.2V43h2.898c.428 0 .852.068 1.271.205.419.137.795.342 1.128.615.333.273.602.604.807.991.205.387.308.822.308 1.306 0 .511-.087.973-.26 1.388a2.9 2.9 0 0 1-.725 1.046c-.31.282-.684.501-1.121.656a4.314 4.314 0 0 1-1.449.232H10.84v3.637h.001zm0-8.832v3.992h1.504c.2 0 .398-.034.595-.103.196-.068.376-.18.54-.335.164-.155.296-.371.396-.649.1-.278.15-.622.15-1.032 0-.164-.023-.354-.068-.567a1.637 1.637 0 0 0-.28-.615 1.657 1.657 0 0 0-.595-.492c-.255-.132-.593-.198-1.012-.198h-1.23v-.001zM25.685 47.682c0 .829-.089 1.538-.267 2.126-.178.588-.403 1.08-.677 1.477a3.478 3.478 0 0 1-.923.937 4.63 4.63 0 0 1-.991.513 4.094 4.094 0 0 1-.875.219c-.264.03-.46.046-.588.046H17.55V42.924h3.035c.848 0 1.593.135 2.235.403a4.64 4.64 0 0 1 1.6 1.073c.424.446.74.955.95 1.524.21.57.315 1.156.315 1.758zm-4.867 4.115c1.112 0 1.914-.355 2.406-1.066.492-.711.738-1.741.738-3.09 0-.419-.05-.834-.15-1.244a2.661 2.661 0 0 0-.581-1.114c-.287-.333-.677-.602-1.169-.807-.492-.205-1.13-.308-1.914-.308h-.957v7.629h1.627z" fill-rule="nonzero"/><path d="M29.718 44.168v3.172h4.211v1.121h-4.211V53H28.05V42.924h6.302v1.244z"/></g></g></svg><svg fill="none" viewBox="0 0 11 10" id="tg" xmlns="http://www.w3.org/2000/svg"><path d="M.194 4.795l2.535.988.981 3.294c.063.211.31.289.474.149l1.413-1.203a.408.408 0 0 1 .513-.015L8.66 9.94c.175.133.424.033.468-.188L10.993.376c.049-.242-.179-.444-.4-.355L.192 4.211c-.256.104-.254.483.003.584zm3.358.462L8.505 2.07c.09-.057.181.069.105.143L4.52 6.182a.898.898 0 0 0-.262.53l-.14 1.077a.127.127 0 0 1-.25.019l-.535-1.965a.532.532 0 0 1 .218-.586z" fill="#000" fill-opacity=".7"/></svg><svg fill="none" viewBox="0 0 15 8" id="vk" xmlns="http://www.w3.org/2000/svg"><path d="M14.866 7.136c-.04-.064-.29-.57-1.49-1.611-1.256-1.09-1.087-.913.426-2.799.922-1.148 1.29-1.849 1.175-2.148-.11-.286-.788-.21-.788-.21L11.935.38s-.166-.021-.291.048c-.121.068-.199.226-.199.226s-.357.888-.833 1.644c-1.005 1.594-1.407 1.678-1.57 1.58-.382-.231-.287-.928-.287-1.422 0-1.545.25-2.19-.488-2.356C8.02.045 7.84.008 7.214.002 6.409-.006 5.728.004 5.342.18c-.256.117-.454.38-.333.394.149.018.486.085.665.313.232.293.224.954.224.954s.133 1.819-.31 2.045c-.306.155-.723-.161-1.618-1.608a13.11 13.11 0 0 1-.806-1.56S3.099.566 2.98.485c-.145-.1-.347-.13-.347-.13L.489.365s-.322.01-.44.14C-.056.622.041.862.041.862s1.678 3.67 3.577 5.52C5.361 8.078 7.34 7.966 7.34 7.966h.896s.27-.028.409-.167c.127-.128.122-.368.122-.368s-.017-1.125.541-1.29c.55-.163 1.258 1.087 2.007 1.568.566.363.996.284.996.284l2.004-.027s1.048-.06.551-.83z" fill="#000" fill-opacity=".7"/></svg><svg viewBox="0 0 43 56" id="xls" xmlns="http://www.w3.org/2000/svg"><g fill="none" fill-rule="evenodd" opacity=".3"><path d="M30.485 0H1.463C.655 0 0 .655 0 1.926V55c0 .345.655 1 1.463 1h40.074c.808 0 1.463-.655 1.463-1V12.978c0-.696-.093-.92-.257-1.085L31.107.257A.884.884 0 0 0 30.485 0z" fill="#FFF"/><path fill="#D2D2D2" d="M31.016.15v11.849h11.849z"/><path d="M41.537 55.998H1.463A1.463 1.463 0 0 1 0 54.535V38.998h43v15.537c0 .808-.655 1.463-1.463 1.463z" fill="#000"/><path fill="#FFF" d="M13.855 48.105L16.412 53h-1.9l-1.6-3.801h-.137l-1.723 3.8h-1.9l2.557-4.894-2.72-5.182h1.872l1.777 4.102h.137l1.928-4.102h1.873zM20.531 42.923v8.832h4.635V53h-6.303V42.923zM32.504 50.236a2.6 2.6 0 0 1-.226 1.06 2.788 2.788 0 0 1-.635.902c-.273.26-.61.467-1.012.622a3.771 3.771 0 0 1-1.367.232c-.219 0-.444-.012-.677-.034a5.493 5.493 0 0 1-.704-.116 3.686 3.686 0 0 1-.677-.226 2.17 2.17 0 0 1-.554-.349l.287-1.176c.127.073.29.144.485.212.196.068.398.132.608.191.21.06.42.107.63.144.208.036.404.055.587.055.556 0 .982-.13 1.278-.39.296-.26.444-.645.444-1.155 0-.31-.105-.574-.314-.793a3.405 3.405 0 0 0-.786-.595 18.637 18.637 0 0 0-1.019-.533 6.173 6.173 0 0 1-1.025-.629 3.281 3.281 0 0 1-.793-.854c-.21-.328-.314-.738-.314-1.23 0-.446.082-.843.246-1.189a2.66 2.66 0 0 1 .663-.882c.278-.24.602-.426.971-.554a3.542 3.542 0 0 1 1.17-.19c.418 0 .842.038 1.27.115.428.077.774.203 1.04.376a13.31 13.31 0 0 1-.192.39l-.205.396c-.064.123-.119.226-.164.308a1.263 1.263 0 0 1-.082.137 1.651 1.651 0 0 1-.185-.109 1.415 1.415 0 0 0-.294-.137 2.097 2.097 0 0 0-.506-.096 4.781 4.781 0 0 0-.807.014c-.183.02-.355.07-.52.157a1.8 1.8 0 0 0-.438.321 1.464 1.464 0 0 0-.3.431 1.1 1.1 0 0 0-.11.458c0 .364.104.658.314.882.21.224.47.42.78.588.31.17.646.333 1.011.492.364.16.704.354 1.02.581.314.227.575.513.785.854.212.342.317.781.317 1.32z"/><path d="M17.012 16.002v-4h-12v22h33v-18h-21zm-10-2h8v2h-8v-2zm0 4h8v2h-8v-2zm0 4h8v2h-8v-2zm0 4h8v2h-8v-2zm8 6h-8v-2h8v2zm21 0h-19v-2h19v2zm0-4h-19v-2h19v2zm0-4h-19v-2h19v2zm-19-4v-2h19v2h-19z" fill="#000" fill-rule="nonzero"/></g></svg><svg viewBox="0 0 43 56" id="xls--active" xmlns="http://www.w3.org/2000/svg"><g fill="none" fill-rule="evenodd"><path d="M30.485 0H1.463C.655 0 0 .655 0 1.926V55c0 .345.655 1 1.463 1h40.074c.808 0 1.463-.655 1.463-1V12.978c0-.696-.093-.92-.257-1.085L31.107.257A.884.884 0 0 0 30.485 0z" fill="#E9E9E0"/><path fill="#D9D7CA" d="M31 0v11.849h11.849z"/><path d="M41.537 56H1.463A1.463 1.463 0 0 1 0 54.537V39h43v15.537c0 .808-.655 1.463-1.463 1.463z" fill="#1D6E43"/><g fill="#FFF"><path d="M13.967 48.105L16.524 53h-1.9l-1.6-3.801h-.137L11.164 53h-1.9l2.557-4.895L9.1 42.923h1.873l1.777 4.102h.137l1.928-4.102h1.873zM20.468 42.924v8.832h4.635V53H18.8V42.924zM32.652 50.238a2.6 2.6 0 0 1-.226 1.06 2.788 2.788 0 0 1-.635.902c-.273.26-.611.467-1.012.622a3.771 3.771 0 0 1-1.367.232c-.219 0-.444-.012-.677-.034a5.493 5.493 0 0 1-.704-.116 3.686 3.686 0 0 1-.677-.226 2.17 2.17 0 0 1-.554-.349l.287-1.176c.127.073.289.144.485.212s.398.132.608.191c.209.06.419.107.629.144.209.036.405.055.588.055.556 0 .982-.13 1.278-.39.296-.26.444-.645.444-1.155 0-.31-.105-.574-.314-.793a3.405 3.405 0 0 0-.786-.595A18.637 18.637 0 0 0 29 48.289a6.173 6.173 0 0 1-1.025-.629 3.281 3.281 0 0 1-.793-.854c-.21-.328-.314-.738-.314-1.23 0-.446.082-.843.246-1.189a2.66 2.66 0 0 1 .663-.882c.278-.241.602-.426.971-.554a3.542 3.542 0 0 1 1.169-.191c.419 0 .843.039 1.271.116.428.077.774.203 1.039.376a13.31 13.31 0 0 1-.191.39l-.205.396c-.064.123-.119.226-.164.308a1.263 1.263 0 0 1-.082.137 1.651 1.651 0 0 1-.185-.109 1.415 1.415 0 0 0-.294-.137 2.097 2.097 0 0 0-.506-.096 4.781 4.781 0 0 0-.807.014c-.183.019-.355.07-.52.157a1.8 1.8 0 0 0-.438.321 1.464 1.464 0 0 0-.301.431 1.1 1.1 0 0 0-.109.458c0 .364.104.658.314.882.209.224.469.419.779.588.31.169.647.333 1.012.492.364.159.704.354 1.019.581.315.227.576.513.786.854.212.342.317.781.317 1.319z"/></g><path d="M17 16v-4H5v22h33V16H17zM7 14h8v2H7v-2zm0 4h8v2H7v-2zm0 4h8v2H7v-2zm0 4h8v2H7v-2zm8 6H7v-2h8v2zm21 0H17v-2h19v2zm0-4H17v-2h19v2zm0-4H17v-2h19v2zm-19-4v-2h19v2H17z" fill="#C8BDB8" fill-rule="nonzero"/></g></svg></svg>