<svg width="11" height="10" viewBox="0 0 11 10" fill="none" xmlns="http://www.w3.org/2000/svg">
<path d="M0.194293 4.79496L2.72892 5.78271L3.70997 9.07701C3.77274 9.288 4.01984 9.36598 4.18385 9.22597L5.59669 8.02337C5.74479 7.89738 5.95573 7.8911 6.1105 8.0084L8.65877 9.94014C8.83422 10.0733 9.08278 9.97291 9.12678 9.75155L10.9935 0.375937C11.0416 0.134129 10.814 -0.0675933 10.5935 0.0214572L0.191323 4.21139C-0.065381 4.31476 -0.0631443 4.69424 0.194293 4.79496ZM3.55186 5.25691L8.50546 2.07134C8.59449 2.01426 8.68608 2.13995 8.60963 2.21399L4.52148 6.18183C4.37778 6.3215 4.28509 6.5084 4.25883 6.71127L4.11957 7.78884C4.10113 7.93271 3.90757 7.94699 3.86954 7.80775L3.33395 5.84278C3.27261 5.61866 3.362 5.37927 3.55186 5.25691Z" fill="black" fill-opacity="0.7"/>
</svg>
