<?xml version="1.0" encoding="UTF-8"?>
<svg width="43px" height="56px" viewBox="0 0 43 56" version="1.1" xmlns="http://www.w3.org/2000/svg" xmlns:xlink="http://www.w3.org/1999/xlink">
    <!-- Generator: Sketch 52.6 (67491) - http://www.bohemiancoding.com/sketch -->
    <title>xls--active</title>
    <desc>Created with Sketch.</desc>
    <g id="Page-1" stroke="none" stroke-width="1" fill="none" fill-rule="evenodd">
        <g id="xls--active">
            <path d="M30.485,0 L1.463,0 C0.655,0 0,0.655 0,1.926 L0,55 C0,55.345 0.655,56 1.463,56 L41.537,56 C42.345,56 43,55.345 43,55 L43,12.978 C43,12.282 42.907,12.058 42.743,11.893 L31.107,0.257 C30.942,0.093 30.718,0 30.485,0 Z" id="Path" fill="#E9E9E0"></path>
            <polygon id="Path" fill="#D9D7CA" points="31 2.30926389e-14 31 11.849 42.849 11.849"></polygon>
            <path d="M41.537,56 L1.463,56 C0.655,56 0,55.345 0,54.537 L0,39 L43,39 L43,54.537 C43,55.345 42.345,56 41.537,56 Z" id="Path" fill="#1D6E43"></path>
            <g id="Group" transform="translate(9.000000, 42.000000)" fill="#FFFFFF">
                <polygon id="Path" points="4.967 6.105 7.524 11 5.624 11 4.024 7.199 3.887 7.199 2.164 11 0.264 11 2.821 6.105 0.1 0.923 1.973 0.923 3.75 5.025 3.887 5.025 5.815 0.923 7.688 0.923"></polygon>
                <polygon id="Path" points="11.468 0.924 11.468 9.756 16.103 9.756 16.103 11 9.8 11 9.8 0.924"></polygon>
                <path d="M23.652,8.238 C23.652,8.602 23.577,8.956 23.426,9.298 C23.275,9.64 23.064,9.94 22.791,10.2 C22.518,10.46 22.18,10.667 21.779,10.822 C21.378,10.977 20.922,11.054 20.412,11.054 C20.193,11.054 19.968,11.042 19.735,11.02 C19.502,10.998 19.268,10.958 19.031,10.904 C18.794,10.849 18.568,10.774 18.354,10.678 C18.14,10.582 17.955,10.466 17.8,10.329 L18.087,9.153 C18.214,9.226 18.376,9.297 18.572,9.365 C18.768,9.433 18.97,9.497 19.18,9.556 C19.389,9.616 19.599,9.663 19.809,9.7 C20.018,9.736 20.214,9.755 20.397,9.755 C20.953,9.755 21.379,9.625 21.675,9.365 C21.971,9.105 22.119,8.72 22.119,8.21 C22.119,7.9 22.014,7.636 21.805,7.417 C21.595,7.198 21.333,7 21.019,6.822 C20.705,6.644 20.365,6.467 20,6.289 C19.635,6.111 19.293,5.901 18.975,5.66 C18.656,5.419 18.392,5.134 18.182,4.806 C17.972,4.478 17.868,4.068 17.868,3.576 C17.868,3.13 17.95,2.733 18.114,2.387 C18.278,2.041 18.499,1.746 18.777,1.505 C19.055,1.264 19.379,1.079 19.748,0.951 C20.117,0.823 20.507,0.76 20.917,0.76 C21.336,0.76 21.76,0.799 22.188,0.876 C22.616,0.953 22.962,1.079 23.227,1.252 C23.172,1.37 23.108,1.5 23.036,1.642 C22.963,1.784 22.894,1.915 22.831,2.038 C22.767,2.161 22.712,2.264 22.667,2.346 C22.621,2.428 22.594,2.474 22.585,2.483 C22.53,2.456 22.469,2.42 22.4,2.374 C22.331,2.328 22.233,2.283 22.106,2.237 C21.978,2.191 21.81,2.16 21.6,2.141 C21.39,2.122 21.121,2.127 20.793,2.155 C20.61,2.174 20.438,2.225 20.273,2.312 C20.108,2.399 19.963,2.505 19.835,2.633 C19.707,2.761 19.607,2.904 19.534,3.064 C19.461,3.223 19.425,3.377 19.425,3.522 C19.425,3.886 19.529,4.18 19.739,4.404 C19.948,4.628 20.208,4.823 20.518,4.992 C20.828,5.161 21.165,5.325 21.53,5.484 C21.894,5.643 22.234,5.838 22.549,6.065 C22.864,6.292 23.125,6.578 23.335,6.919 C23.547,7.261 23.652,7.7 23.652,8.238 Z" id="Path"></path>
            </g>
            <path d="M17,16 L17,12 L5,12 L5,16 L5,18 L5,20 L5,22 L5,24 L5,26 L5,28 L5,30 L5,34 L15,34 L17,34 L38,34 L38,30 L38,28 L38,26 L38,24 L38,22 L38,20 L38,16 L17,16 Z M7,14 L15,14 L15,16 L7,16 L7,14 Z M7,18 L15,18 L15,20 L7,20 L7,18 Z M7,22 L15,22 L15,24 L7,24 L7,22 Z M7,26 L15,26 L15,28 L7,28 L7,26 Z M15,32 L7,32 L7,30 L15,30 L15,32 Z M36,32 L17,32 L17,30 L36,30 L36,32 Z M36,28 L17,28 L17,26 L36,26 L36,28 Z M36,24 L17,24 L17,22 L36,22 L36,24 Z M17,20 L17,18 L36,18 L36,20 L17,20 Z" id="Shape" fill="#C8BDB8" fill-rule="nonzero"></path>
        </g>
    </g>
</svg>