<?xml version="1.0" encoding="UTF-8"?>
<svg width="43px" height="56px" viewBox="0 0 43 56" version="1.1" xmlns="http://www.w3.org/2000/svg" xmlns:xlink="http://www.w3.org/1999/xlink">
    <!-- Generator: Sketch 52.6 (67491) - http://www.bohemiancoding.com/sketch -->
    <title>Group</title>
    <desc>Created with Sketch.</desc>
    <g id="Page-1" stroke="none" stroke-width="1" fill="none" fill-rule="evenodd" opacity="0.3">
        <g id="Group">
            <path d="M30.485,0 L1.463,0 C0.655,0 0,0.655 0,1.926 L0,55 C0,55.345 0.655,56 1.463,56 L41.537,56 C42.345,56 43,55.345 43,55 L43,12.978 C43,12.282 42.907,12.058 42.743,11.893 L31.107,0.257 C30.942,0.093 30.718,0 30.485,0 Z" id="Path" fill="#FFFFFF"></path>
            <polygon id="Path" fill="#D2D2D2" points="31.0156 0.149902 31.0156 11.9989 42.8646 11.9989"></polygon>
            <path d="M41.537,55.9976 L1.463,55.9976 C0.655,55.9976 0,55.3426 0,54.5346 L0,38.9976 L43,38.9976 L43,54.5346 C43,55.3426 42.345,55.9976 41.537,55.9976 Z" id="Path" fill="#000000"></path>
            <polygon id="Path" fill="#FFFFFF" points="13.8553 48.1049 16.4123 52.9999 14.5123 52.9999 12.9123 49.1989 12.7753 49.1989 11.0523 52.9999 9.15228 52.9999 11.7093 48.1049 8.98828 42.9229 10.8613 42.9229 12.6383 47.0249 12.7753 47.0249 14.7033 42.9229 16.5763 42.9229"></polygon>
            <polygon id="Path" fill="#FFFFFF" points="20.5313 42.9233 20.5313 51.7553 25.1663 51.7553 25.1663 52.9993 18.8633 52.9993 18.8633 42.9233"></polygon>
            <path d="M32.5043,50.2363 C32.5043,50.6003 32.4293,50.9543 32.2783,51.2963 C32.1273,51.6383 31.9163,51.9383 31.6433,52.1983 C31.3703,52.4583 31.0323,52.6653 30.6313,52.8203 C30.2303,52.9753 29.7743,53.0523 29.2643,53.0523 C29.0453,53.0523 28.8203,53.0403 28.5873,53.0183 C28.3543,52.9963 28.1203,52.9563 27.8833,52.9023 C27.6463,52.8473 27.4203,52.7723 27.2063,52.6763 C26.9923,52.5803 26.8073,52.4643 26.6523,52.3273 L26.9393,51.1513 C27.0663,51.2243 27.2283,51.2953 27.4243,51.3633 C27.6203,51.4313 27.8223,51.4953 28.0323,51.5543 C28.2413,51.6143 28.4513,51.6613 28.6613,51.6983 C28.8703,51.7343 29.0663,51.7533 29.2493,51.7533 C29.8053,51.7533 30.2313,51.6233 30.5273,51.3633 C30.8233,51.1033 30.9713,50.7183 30.9713,50.2083 C30.9713,49.8983 30.8663,49.6343 30.6573,49.4153 C30.4473,49.1963 30.1853,48.9983 29.8713,48.8203 C29.5573,48.6423 29.2173,48.4653 28.8523,48.2873 C28.4873,48.1093 28.1453,47.8993 27.8273,47.6583 C27.5083,47.4173 27.2443,47.1323 27.0343,46.8043 C26.8243,46.4763 26.7203,46.0663 26.7203,45.5743 C26.7203,45.1283 26.8023,44.7313 26.9663,44.3853 C27.1303,44.0393 27.3513,43.7443 27.6293,43.5033 C27.9073,43.2623 28.2313,43.0773 28.6003,42.9493 C28.9693,42.8213 29.3593,42.7583 29.7693,42.7583 C30.1883,42.7583 30.6123,42.7973 31.0403,42.8743 C31.4683,42.9513 31.8143,43.0773 32.0793,43.2503 C32.0243,43.3683 31.9603,43.4983 31.8883,43.6403 C31.8153,43.7823 31.7463,43.9133 31.6833,44.0363 C31.6193,44.1593 31.5643,44.2623 31.5193,44.3443 C31.4733,44.4263 31.4463,44.4723 31.4373,44.4813 C31.3823,44.4543 31.3213,44.4183 31.2523,44.3723 C31.1833,44.3263 31.0853,44.2813 30.9583,44.2353 C30.8303,44.1893 30.6623,44.1583 30.4523,44.1393 C30.2423,44.1203 29.9733,44.1253 29.6453,44.1533 C29.4623,44.1723 29.2903,44.2233 29.1253,44.3103 C28.9603,44.3973 28.8153,44.5033 28.6873,44.6313 C28.5593,44.7593 28.4593,44.9023 28.3863,45.0623 C28.3133,45.2213 28.2773,45.3753 28.2773,45.5203 C28.2773,45.8843 28.3813,46.1783 28.5913,46.4023 C28.8003,46.6263 29.0603,46.8213 29.3703,46.9903 C29.6803,47.1593 30.0173,47.3233 30.3823,47.4823 C30.7463,47.6413 31.0863,47.8363 31.4013,48.0633 C31.7163,48.2903 31.9773,48.5763 32.1873,48.9173 C32.3993,49.2593 32.5043,49.6983 32.5043,50.2363 Z" id="Path" fill="#FFFFFF"></path>
            <path d="M17.0117,16.0024 L17.0117,12.0024 L5.01172,12.0024 L5.01172,16.0024 L5.01172,18.0024 L5.01172,20.0024 L5.01172,22.0024 L5.01172,24.0024 L5.01172,26.0024 L5.01172,28.0024 L5.01172,30.0024 L5.01172,34.0024 L15.0117,34.0024 L17.0117,34.0024 L38.0117,34.0024 L38.0117,30.0024 L38.0117,28.0024 L38.0117,26.0024 L38.0117,24.0024 L38.0117,22.0024 L38.0117,20.0024 L38.0117,16.0024 L17.0117,16.0024 Z M7.01172,14.0024 L15.0117,14.0024 L15.0117,16.0024 L7.01172,16.0024 L7.01172,14.0024 Z M7.01172,18.0024 L15.0117,18.0024 L15.0117,20.0024 L7.01172,20.0024 L7.01172,18.0024 Z M7.01172,22.0024 L15.0117,22.0024 L15.0117,24.0024 L7.01172,24.0024 L7.01172,22.0024 Z M7.01172,26.0024 L15.0117,26.0024 L15.0117,28.0024 L7.01172,28.0024 L7.01172,26.0024 Z M15.0117,32.0024 L7.01172,32.0024 L7.01172,30.0024 L15.0117,30.0024 L15.0117,32.0024 Z M36.0117,32.0024 L17.0117,32.0024 L17.0117,30.0024 L36.0117,30.0024 L36.0117,32.0024 Z M36.0117,28.0024 L17.0117,28.0024 L17.0117,26.0024 L36.0117,26.0024 L36.0117,28.0024 Z M36.0117,24.0024 L17.0117,24.0024 L17.0117,22.0024 L36.0117,22.0024 L36.0117,24.0024 Z M17.0117,20.0024 L17.0117,18.0024 L36.0117,18.0024 L36.0117,20.0024 L17.0117,20.0024 Z" id="Shape" fill="#000000" fill-rule="nonzero"></path>
        </g>
    </g>
</svg>